<svg width="130" height="4" viewBox="0 0 130 4" fill="none" xmlns="http://www.w3.org/2000/svg">
<path d="M128 3.50001L129.5 3.50001L129.5 0.500011L128 0.500011L128 3.50001ZM10.6667 3.5C11.4951 3.5 12.1667 2.82843 12.1667 2C12.1667 1.17157 11.4951 0.500001 10.6667 0.500001L10.6667 3.5ZM32 0.500003C31.1716 0.500003 30.5 1.17158 30.5 2C30.5 2.82843 31.1716 3.5 32 3.5L32 0.500003ZM53.3333 3.5C54.1618 3.5 54.8333 2.82843 54.8333 2C54.8333 1.17158 54.1618 0.500005 53.3333 0.500005L53.3333 3.5ZM74.6667 0.500007C73.8382 0.500006 73.1667 1.17158 73.1667 2.00001C73.1667 2.82843 73.8382 3.50001 74.6667 3.50001L74.6667 0.500007ZM96 3.50001C96.8284 3.50001 97.5 2.82844 97.5 2.00001C97.5 1.17158 96.8284 0.500008 96 0.500008L96 3.50001ZM117.333 0.50001C116.505 0.50001 115.833 1.17158 115.833 2.00001C115.833 2.82844 116.505 3.50001 117.333 3.50001L117.333 0.50001ZM-1.31134e-07 3.5L10.6667 3.5L10.6667 0.500001L1.31134e-07 0.5L-1.31134e-07 3.5ZM32 3.5L53.3333 3.5L53.3333 0.500005L32 0.500003L32 3.5ZM74.6667 3.50001L96 3.50001L96 0.500008L74.6667 0.500007L74.6667 3.50001ZM117.333 3.50001L128 3.50001L128 0.500011L117.333 0.50001L117.333 3.50001Z" fill="white" fill-opacity="0.5"/>
</svg>
